<svg xmlns="http://www.w3.org/2000/svg" viewBox="0 0 128 128">
  <rect width="128" height="128" rx="28" fill="#092a63"/>
  <g clip-path="url(#clip)">
    <rect x="14" y="32" width="100" height="64" fill="#fffdf5"/>
    <path d="M14 32h100v5H14zm0 10h100v5H14zm0 10h100v5H14zm0 10h100v5H14zm0 10h100v5H14zm0 10h100v5H14zm0 10h100v5H14z" fill="#d92f45"/>
    <rect x="14" y="32" width="44" height="35" fill="#173f86"/>
    <g fill="#fffdf5">
      <circle cx="21" cy="39" r="2"/><circle cx="29" cy="39" r="2"/><circle cx="37" cy="39" r="2"/><circle cx="45" cy="39" r="2"/><circle cx="53" cy="39" r="2"/>
      <circle cx="21" cy="48" r="2"/><circle cx="29" cy="48" r="2"/><circle cx="37" cy="48" r="2"/><circle cx="45" cy="48" r="2"/><circle cx="53" cy="48" r="2"/>
      <circle cx="21" cy="57" r="2"/><circle cx="29" cy="57" r="2"/><circle cx="37" cy="57" r="2"/><circle cx="45" cy="57" r="2"/><circle cx="53" cy="57" r="2"/>
    </g>
  </g>
  <rect x="14" y="32" width="100" height="64" rx="8" fill="none" stroke="#fffdf5" stroke-width="5"/>
  <defs><clipPath id="clip"><rect x="14" y="32" width="100" height="64" rx="8"/></clipPath></defs>
</svg>
